<?xml version="1.0" standalone="no"?>
<!DOCTYPE svg PUBLIC "-//W3C//DTD SVG 20010904//EN"
 "http://www.w3.org/TR/2001/REC-SVG-20010904/DTD/svg10.dtd">
<svg version="1.0" xmlns="http://www.w3.org/2000/svg"
 width="512.000000pt" height="512.000000pt" viewBox="0 0 512.000000 512.000000"
 preserveAspectRatio="xMidYMid meet">

<g transform="translate(0.000000,512.000000) scale(0.100000,-0.100000)"
fill="#000000" stroke="none">
<path d="M1922 5101 c-66 -23 -117 -63 -159 -125 -47 -69 -53 -102 -53 -308
l0 -187 -537 -3 -538 -3 -65 -25 c-134 -52 -240 -145 -296 -259 -54 -110 -57
-128 -62 -412 -6 -377 -12 -369 262 -369 l166 0 0 -1467 c0 -1617 -3 -1533 62
-1657 48 -90 147 -185 238 -228 41 -20 99 -41 128 -47 37 -8 487 -11 1495 -11
1584 0 1503 -3 1629 61 130 66 247 220 277 367 8 37 11 494 11 1517 l0 1465
166 0 c267 0 264 -3 264 322 0 276 -9 339 -59 443 -64 133 -157 219 -297 273
l-69 27 -537 3 -537 3 -3 207 c-3 193 -5 210 -26 250 -35 66 -88 119 -150 149
l-57 28 -600 2 c-561 3 -603 1 -653 -16z m1213 -205 c57 -24 65 -53 65 -246
l0 -170 -640 0 -640 0 0 170 c0 192 8 221 63 245 48 21 1102 22 1152 1z m1366
-658 c69 -32 127 -88 160 -154 23 -46 24 -61 27 -251 l3 -203 -2130 0 -2131 0
0 190 c0 167 2 196 21 244 34 93 129 174 226 194 21 4 877 8 1903 7 l1865 0
56 -27z m-233 -2300 l-3 -1473 -26 -55 c-37 -80 -81 -125 -157 -162 l-67 -33
-1455 0 -1455 0 -67 33 c-76 37 -120 82 -157 162 l-26 55 -3 1473 -2 1472
1710 0 1710 0 -2 -1472z"/>
<path d="M1541 2754 c-52 -37 -51 -18 -51 -945 0 -955 -3 -911 65 -943 41 -20
49 -20 90 0 68 32 65 -12 65 943 0 927 1 908 -51 945 -13 9 -39 16 -59 16 -20
0 -46 -7 -59 -16z"/>
<path d="M2501 2754 c-52 -37 -51 -18 -51 -945 0 -955 -3 -911 65 -943 41 -20
49 -20 90 0 68 32 65 -12 65 943 0 927 1 908 -51 945 -13 9 -39 16 -59 16 -20
0 -46 -7 -59 -16z"/>
<path d="M3461 2754 c-52 -37 -51 -18 -51 -945 0 -955 -3 -911 65 -943 41 -20
49 -20 90 0 68 32 65 -12 65 943 0 927 1 908 -51 945 -13 9 -39 16 -59 16 -20
0 -46 -7 -59 -16z"/>
</g>
</svg>
